<svg xmlns="http://www.w3.org/2000/svg" width="919" height="970" viewBox="0 0 919 970" fill="none">
<path d="M858.043 11.8366C758.931 -63.2779 231.774 266.058 139.992 327.413C-133.823 407.489 58.614 566.65 175.546 686.412C198.131 705.347 190.271 760.142 231.346 786.094C243.718 795.104 247.626 796.091 252.45 804.09C259.417 815.644 257.81 833.276 267.465 839.354C282.133 848.588 302.66 835.733 316.126 844.482C332.596 857.022 340.418 873.918 352.373 888.883C368.313 908.837 383.72 935.012 400.511 942.947C417.262 950.864 434.042 956.795 450.847 961.027C484.485 969.497 518.22 971.159 552.015 968.315C573.528 966.505 595.333 963.931 616.617 958.001C647.443 949.413 653.632 958.588 663.739 901.714C667.607 879.953 678.425 865.001 719.999 840.962C748.733 826.728 797.031 817.104 812.54 798.659C838.397 767.909 861.624 736.781 879.521 709.319C893.356 688.089 899.369 664.146 900.755 639.042C905.352 555.769 859.041 459.72 878.487 407.525C912.969 306.927 957.155 86.9511 858.043 11.8366Z" fill="#00BBC7" fill-opacity="0.53"/>
</svg>