<svg xmlns="http://www.w3.org/2000/svg" width="839" height="1015" viewBox="0 0 839 1015" fill="none">
<path d="M32.235 448.095C111.148 370.886 568.638 -49.8976 679.888 5.67965C791.138 61.2569 788.218 285.607 772.852 390.835C763.351 445.719 826.558 531.597 837.375 614.292C840.636 639.222 839.136 663.862 829.447 687.277C816.914 717.565 799.816 752.439 780.064 787.424C768.217 808.41 722.517 826.763 696.896 846.046C660.46 877.33 652.581 894.019 652.787 916.12C653.327 973.882 645.554 966.004 616.837 980.122C597.008 989.87 576.05 996.416 555.239 1002.16C522.545 1011.18 489.081 1015.75 454.459 1013.62C437.163 1012.56 419.577 1009.82 401.654 1005.12C383.689 1000.42 363.725 977.527 344.383 960.849C338.09 955.424 332.495 949.497 326.666 943.767C241.276 1028.3 -104.912 629.988 32.235 448.095Z" fill="#00BBC7" fill-opacity="0.53"/>
</svg>