<svg xmlns="http://www.w3.org/2000/svg" width="55" height="90" viewBox="0 0 55 90" fill="none">
<path d="M0.70616 86.5281C0.178267 86.3658 -0.118085 85.8063 0.0442347 85.2784L2.68942 76.6759C2.85174 76.148 3.41127 75.8516 3.93916 76.014C4.46705 76.1763 4.76341 76.7358 4.60109 77.2637L2.24981 84.9104L9.89648 87.2616C10.4244 87.424 10.7207 87.9835 10.5584 88.5114C10.3961 89.0393 9.83655 89.3356 9.30866 89.1733L0.70616 86.5281ZM52.271 1.16902C53.2473 0.952946 53.2475 0.953763 53.2477 0.954775C53.2479 0.955373 53.2481 0.956582 53.2484 0.957778C53.2489 0.960171 53.2496 0.963344 53.2505 0.967294C53.2522 0.975193 53.2545 0.986199 53.2575 1.00028C53.2634 1.02844 53.2718 1.06889 53.2823 1.12137C53.3032 1.22633 53.3326 1.37942 53.3678 1.57852C53.4382 1.9767 53.5318 2.55902 53.6278 3.30851C53.8198 4.8073 54.0214 6.97574 54.0644 9.67772C54.1505 15.0808 53.6032 22.6253 51.0739 31.2174C46.0063 48.432 33.0111 69.7493 1.46812 86.456L0.532018 84.6886C31.6 68.2335 44.2402 47.3492 49.1553 30.6526C51.6174 22.2891 52.1482 14.9507 52.0647 9.7096C52.0229 7.08954 51.8276 4.99566 51.6441 3.56264C51.5523 2.84622 51.4635 2.29527 51.3983 1.92665C51.3657 1.74235 51.3391 1.60366 51.3209 1.51269C51.3118 1.4672 51.3049 1.43365 51.3004 1.4123C51.2981 1.40162 51.2965 1.394 51.2955 1.38945C51.295 1.38718 51.2947 1.38568 51.2946 1.38495C51.2945 1.38459 51.2945 1.38463 51.2944 1.38444C51.2945 1.38467 51.2946 1.3851 52.271 1.16902Z" fill="#00B0EB"/>
</svg>