<svg xmlns="http://www.w3.org/2000/svg" width="98" height="37" viewBox="0 0 98 37" fill="none">
<path d="M95.3751 1.13921C95.2405 0.603564 94.6972 0.278425 94.1616 0.412987L85.4328 2.6058C84.8972 2.74037 84.572 3.28367 84.7066 3.81931C84.8412 4.35495 85.3845 4.68009 85.9201 4.54553L93.679 2.59636L95.6282 10.3553C95.7627 10.8909 96.3061 11.2161 96.8417 11.0815C97.3773 10.9469 97.7025 10.4036 97.5679 9.86798L95.3751 1.13921ZM0.871487 24.2823C0.318852 25.1157 0.31949 25.1161 0.320347 25.1167C0.320923 25.1171 0.321999 25.1178 0.323151 25.1185C0.325456 25.1201 0.32863 25.1221 0.332671 25.1248C0.340751 25.1301 0.352293 25.1377 0.367261 25.1474C0.397194 25.1669 0.440829 25.1952 0.497867 25.2316C0.61194 25.3046 0.779643 25.4104 0.998595 25.545C1.43647 25.8141 2.07949 26.1982 2.9086 26.6638C4.56651 27.5948 6.9704 28.8528 9.96768 30.1692C15.9575 32.7999 24.3429 35.6753 33.8958 36.626C43.4547 37.5774 54.1999 36.6027 64.8721 31.5116C75.5488 26.4184 86.0816 17.2391 95.2633 1.89637L93.5472 0.869338C84.5375 15.9245 74.2828 24.8065 64.011 29.7065C53.7348 34.6087 43.3705 35.5591 34.0938 34.6359C24.8111 33.712 16.6349 30.913 10.7719 28.338C7.84282 27.0516 5.49756 25.8239 3.8879 24.92C3.08323 24.4681 2.46287 24.0974 2.04581 23.8411C1.83729 23.7129 1.67964 23.6134 1.57522 23.5466C1.52301 23.5132 1.48412 23.488 1.45884 23.4716C1.44619 23.4633 1.43696 23.4573 1.43116 23.4535C1.42826 23.4516 1.42622 23.4502 1.42505 23.4495C1.42446 23.4491 1.42423 23.4489 1.42393 23.4487C1.42392 23.4487 1.42412 23.4488 0.871487 24.2823Z" fill="#00B0EB"/>
</svg>